HIERARCHY
ROOT Hips
{
	OFFSET 0.0000 0.0000 0.0000
	CHANNELS 6 Xposition Yposition Zposition Zrotation Xrotation Yrotation
	JOINT Spine1
	{
		OFFSET -0.0137 5.0038 -0.0537
		CHANNELS 3 Zrotation Xrotation Yrotation
		JOINT Spine2
		{
			OFFSET -0.0000 7.1253 -0.0298
			CHANNELS 3 Zrotation Xrotation Yrotation
			JOINT Chest
			{
				OFFSET -0.0000 7.5501 -0.8160
				CHANNELS 3 Zrotation Xrotation Yrotation
				JOINT Neck1
				{
					OFFSET -0.1817 26.3113 -0.5533
					CHANNELS 3 Zrotation Xrotation Yrotation
					JOINT Neck2
					{
						OFFSET -0.0000 7.7094 2.3026
						CHANNELS 3 Zrotation Xrotation Yrotation
						JOINT Head
						{
							OFFSET -0.0000 6.1289 1.9537
							CHANNELS 3 Zrotation Xrotation Yrotation
							JOINT Jaw
							{
								OFFSET 0.0026 0.4756 3.0949
								CHANNELS 3 Zrotation Xrotation Yrotation
								End Site
								{
									OFFSET 0.0 1.0 0.0
								}
							}
							JOINT LeftEye
							{
								OFFSET 3.2064 5.3802 7.5869
								CHANNELS 3 Zrotation Xrotation Yrotation
								End Site
								{
									OFFSET 0.0 1.0 0.0
								}
							}
							JOINT RightEye
							{
								OFFSET -3.2224 5.3619 7.5582
								CHANNELS 3 Zrotation Xrotation Yrotation
								End Site
								{
									OFFSET 0.0 1.0 0.0
								}
							}
						}
					}
				}
				JOINT LeftShoulder
				{
					OFFSET 1.6217 23.2372 5.1134
					CHANNELS 3 Zrotation Xrotation Yrotation
					JOINT LeftArm
					{
						OFFSET 14.9198 0.0000 -5.5023
						CHANNELS 3 Zrotation Xrotation Yrotation
						JOINT LeftForeArm
						{
							OFFSET 28.7393 0.0000 -0.0026
							CHANNELS 3 Zrotation Xrotation Yrotation
							JOINT LeftHand
							{
								OFFSET 27.0940 -0.0000 0.0026
								CHANNELS 3 Zrotation Xrotation Yrotation
								JOINT LeftHandThumbEnd
								{
									OFFSET 12.2686 -3.2202 4.8331
									CHANNELS 3 Zrotation Xrotation Yrotation
									End Site
									{
										OFFSET 0.0 1.0 0.0
									}
								}
								JOINT LeftHandMiddleEnd
								{
									OFFSET 19.0120 -0.3129 -0.0340
									CHANNELS 3 Zrotation Xrotation Yrotation
									End Site
									{
										OFFSET 0.0 1.0 0.0
									}
								}
							}
						}
					}
				}
				JOINT RightShoulder
				{
					OFFSET -1.3801 23.1803 5.2142
					CHANNELS 3 Zrotation Xrotation Yrotation
					JOINT RightArm
					{
						OFFSET -15.0372 0.0000 -5.5456
						CHANNELS 3 Zrotation Xrotation Yrotation
						JOINT RightForeArm
						{
							OFFSET -28.7366 0.0000 -0.0026
							CHANNELS 3 Zrotation Xrotation Yrotation
							JOINT RightHand
							{
								OFFSET -27.1336 -0.0000 0.0026
								CHANNELS 3 Zrotation Xrotation Yrotation
								JOINT RightHandThumbEnd
								{
									OFFSET -12.2642 -3.2115 4.8040
									CHANNELS 3 Zrotation Xrotation Yrotation
									End Site
									{
										OFFSET 0.0 1.0 0.0
									}
								}
								JOINT RightHandMiddleEnd
								{
									OFFSET -19.0006 -0.3066 -0.0316
									CHANNELS 3 Zrotation Xrotation Yrotation
									End Site
									{
										OFFSET 0.0 1.0 0.0
									}
								}
							}
						}
					}
				}
			}
		}
	}
	JOINT LeftLeg
	{
		OFFSET 10.0432 -8.4345 2.5957
		CHANNELS 3 Zrotation Xrotation Yrotation
		JOINT LeftShin
		{
			OFFSET -0.0000 -43.2218 -0.8029
			CHANNELS 3 Zrotation Xrotation Yrotation
			JOINT LeftFoot
			{
				OFFSET 0.0000 -42.1551 -3.4815
				CHANNELS 3 Zrotation Xrotation Yrotation
				JOINT LeftToeBase
				{
					OFFSET 0.0000 -5.0595 13.2315
					CHANNELS 3 Zrotation Xrotation Yrotation
					End Site
					{
						OFFSET 0.0 1.0 0.0
					}
				}
			}
		}
	}
	JOINT RightLeg
	{
		OFFSET -10.0473 -8.2953 2.6203
		CHANNELS 3 Zrotation Xrotation Yrotation
		JOINT RightShin
		{
			OFFSET 0.0000 -43.3622 -0.8056
			CHANNELS 3 Zrotation Xrotation Yrotation
			JOINT RightFoot
			{
				OFFSET 0.0000 -42.1174 -3.4784
				CHANNELS 3 Zrotation Xrotation Yrotation
				JOINT RightToeBase
				{
					OFFSET -0.0000 -5.0796 13.2842
					CHANNELS 3 Zrotation Xrotation Yrotation
					End Site
					{
						OFFSET 0.0 1.0 0.0
					}
				}
			}
		}
	}
}
MOTION
Frames: 13
Frame Time: 0.033333
-5.2901 90.1461 -1.8675 5.3128 4.6088 0.6479 0.3745 10.0629 -1.0247 -0.5363 -1.2418 -1.3250 -0.4497 6.3210 -4.4418 8.5222 25.1030 -0.9560 -2.1490 -4.0435 -9.3840 4.3645 -12.9683 -12.4982 -0.0573 -0.0032 0.1100 0.6459 -10.6289 -3.7810 -0.7474 -10.6732 4.0018 -0.2176 7.6348 -3.4877 -54.0719 -17.1046 -35.3071 -0.0692 0.1861 -137.8997 9.3281 -1.5013 -12.6384 -15.8171 11.1204 15.9388 -61.9072 1.6522 2.6947 6.6844 7.0517 10.5842 62.3985 -21.4597 -29.0052 -0.3657 -0.3471 104.4722 -47.7016 18.5095 -10.1054 14.2333 7.6051 -16.0926 49.7436 -3.5434 -5.4113 16.1977 -19.4102 22.7252 -0.4611 33.0732 -1.1641 -25.6724 -10.0275 6.8583 1.6649 -3.2392 -2.0577 -2.9775 -47.3484 -28.1683 -0.1510 53.6444 -0.2850 4.6658 -12.7430 -14.6076 -1.4369 0.5084 1.1525
-4.9840 90.0539 -2.1824 5.7303 4.5022 0.8228 0.4326 10.2328 -1.0517 -0.4755 -1.2575 -1.2792 -0.3427 6.4082 -4.4218 8.6889 24.8996 -0.9509 -2.2937 -4.0591 -9.6092 4.1888 -13.1356 -12.7124 -0.0700 -0.0241 0.1179 0.6363 -10.6028 -3.7682 -0.7632 -10.6458 4.0076 0.1768 7.4738 -3.4393 -54.1185 -17.8057 -35.5444 0.2321 -0.0410 -137.8012 9.5236 -1.7473 -12.7416 -15.7918 11.0898 15.9282 -62.0038 1.5996 2.7836 6.7343 7.1429 10.6877 62.8517 -22.1936 -29.5279 -0.3983 -0.5775 104.7729 -48.1560 18.4138 -9.5202 14.3359 7.4859 -15.8772 49.7632 -3.5359 -5.2651 15.4982 -19.9524 22.9675 -0.5456 34.1476 -1.1991 -25.1061 -10.7409 6.3891 1.6624 -2.9998 -2.0321 -3.8751 -47.8795 -27.6712 -0.1930 53.6352 -0.3460 4.8981 -12.1964 -14.5965 -1.4426 0.5230 1.1536
-4.4407 89.9930 -2.5556 6.1080 4.4105 1.0159 0.5016 10.2897 -1.0503 -0.4246 -1.2772 -1.3199 -0.1366 6.5211 -4.3640 8.9866 24.6960 -1.0265 -2.4500 -4.0947 -9.7858 3.8587 -13.1973 -12.7544 -0.0813 -0.0284 0.1340 0.6333 -10.5902 -3.7549 -0.7838 -10.6305 4.0305 0.5925 7.2800 -3.4660 -54.2171 -18.2786 -35.8032 0.5820 -0.1617 -137.5071 9.5356 -2.0306 -12.6943 -15.8266 11.0134 15.9355 -62.0038 1.5560 2.7872 6.8588 7.2210 10.9670 63.0924 -22.9078 -29.6962 -0.4893 -0.6061 104.8009 -48.7428 17.9943 -9.4779 14.3855 7.3719 -15.7534 49.7468 -3.5607 -5.1626 14.6753 -20.4055 23.2001 -0.5821 35.0868 -1.1831 -24.3970 -11.5089 6.2135 1.6650 -2.7498 -2.0298 -4.9346 -48.3779 -26.9700 -0.1835 53.4376 -0.3517 5.0980 -11.4349 -14.6694 -1.4440 0.6026 1.1587
-3.8426 90.0270 -2.9647 6.3086 4.3430 1.1056 0.5837 10.3074 -1.0288 -0.3567 -1.2955 -1.3926 0.1430 6.6219 -4.3474 9.3338 24.5564 -1.1576 -2.5593 -4.1350 -9.8381 3.5453 -13.2165 -12.6847 -0.0873 -0.0351 0.1490 0.6334 -10.5913 -3.7414 -0.7952 -10.6307 4.0470 1.0270 7.1159 -3.5410 -54.1886 -18.6167 -35.9953 0.8437 -0.2351 -137.0062 9.3373 -2.0275 -12.4270 -15.8681 10.9660 15.9409 -61.9795 1.5382 2.7512 7.0263 7.2986 11.3142 63.1128 -23.5741 -29.5571 -0.4409 -0.5960 104.6388 -49.0002 17.3437 -9.7293 14.3664 7.2866 -15.7587 49.7259 -3.5758 -5.1216 13.8760 -20.7907 23.4607 -0.5703 35.8379 -1.1517 -23.6648 -12.1858 6.2908 1.6627 -2.5884 -2.0319 -5.8689 -48.6792 -26.1679 -0.1756 52.9200 -0.3444 5.2303 -10.4081 -14.8314 -1.4440 0.6626 1.1645
-3.1939 90.1832 -3.4173 6.3550 4.3312 1.0996 0.6610 10.3079 -1.0276 -0.3009 -1.3188 -1.4665 0.4322 6.6917 -4.3843 9.7390 24.4723 -1.3093 -2.6063 -4.1550 -9.7880 3.3454 -13.1815 -12.5865 -0.0914 -0.0461 0.1633 0.6315 -10.5973 -3.7258 -0.8006 -10.6384 4.0595 1.6037 6.9681 -3.6869 -54.0033 -18.9072 -36.1757 1.0352 -0.2774 -136.3947 8.9952 -1.6327 -11.9697 -15.8612 10.9430 15.9478 -61.8436 1.5757 2.6550 7.2430 7.2559 11.6211 62.9720 -23.9825 -29.3100 -0.2138 -0.5741 104.5319 -48.7162 16.4066 -9.9524 14.3681 7.2406 -15.8525 49.7133 -3.5873 -5.1055 13.0824 -21.2106 23.8580 -0.5351 36.4361 -1.1102 -22.8946 -12.6800 6.3687 1.6601 -2.5305 -2.0167 -6.5441 -48.7794 -25.4543 -0.1576 51.9530 -0.3039 5.2664 -9.1530 -14.9890 -1.4471 0.7152 1.1597
-2.4578 90.4247 -3.9771 6.3007 4.3511 0.9289 0.6908 10.3185 -1.0729 -0.2657 -1.3245 -1.5393 0.6767 6.7156 -4.4575 10.1316 24.5388 -1.4628 -2.5978 -4.1643 -9.6430 3.2505 -13.0935 -12.4182 -0.0897 -0.0603 0.1661 0.6305 -10.6097 -3.7246 -0.7954 -10.6563 4.0628 2.3263 6.8086 -3.8691 -53.7230 -19.1518 -36.3770 1.1747 -0.3075 -135.8400 8.6104 -1.0804 -11.5004 -15.7876 10.9027 15.9448 -61.6131 1.6298 2.5488 7.5474 7.1193 11.7842 62.7037 -24.0331 -28.9646 -0.0021 -0.5244 104.6118 -48.0374 15.3490 -10.1075 14.3579 7.2000 -15.9241 49.6964 -3.6039 -5.0857 12.3288 -21.5906 24.3662 -0.4974 36.8795 -1.0586 -22.1333 -13.0348 6.4105 1.6599 -2.5190 -1.9860 -6.9974 -48.7216 -24.8203 -0.1422 50.6073 -0.2478 5.1627 -7.7335 -15.1211 -1.4544 0.7441 1.1550
-1.6644 90.7014 -4.6049 6.2085 4.3477 0.4531 0.6524 10.3593 -1.1327 -0.2588 -1.3077 -1.6087 0.8394 6.7086 -4.5259 10.4837 24.8493 -1.5829 -2.5674 -4.1888 -9.3869 3.1670 -12.9503 -12.1120 -0.0837 -0.0739 0.1595 0.6366 -10.6262 -3.7368 -0.7881 -10.6774 4.0583 3.1265 6.6310 -4.0631 -53.4666 -19.3178 -36.4702 1.2943 -0.3263 -135.3418 8.2602 -0.5525 -11.1737 -15.7638 10.8490 15.9675 -61.4486 1.6374 2.5165 7.9527 6.9973 11.8430 62.3966 -23.7840 -28.4925 0.0985 -0.4910 104.8190 -47.2291 14.3048 -10.1202 14.3678 7.2086 -15.9953 49.7103 -3.6261 -5.0997 11.5907 -21.8461 25.0865 -0.4845 37.2593 -1.0163 -21.4668 -13.2775 6.4353 1.6612 -2.4983 -1.9514 -7.3597 -48.5028 -24.1472 -0.1362 48.9203 -0.1904 4.8888 -6.1787 -15.0228 -1.4606 0.7036 1.1531
-0.7204 90.9868 -5.2825 6.1553 4.2926 -0.4853 0.5266 10.4236 -1.1844 -0.2952 -1.2739 -1.6228 0.8910 6.7183 -4.5531 10.7331 25.3604 -1.6181 -2.5089 -4.2085 -9.0696 3.0716 -12.8036 -11.6815 -0.0720 -0.0826 0.1383 0.6541 -10.6472 -3.7664 -0.7816 -10.6975 4.0417 3.9402 6.4187 -4.1976 -53.3448 -19.2991 -36.3576 1.4255 -0.3777 -134.9155 7.9779 -0.1433 -11.0265 -15.7183 10.7944 15.9865 -61.2817 1.6118 2.4936 8.3537 6.9449 11.8234 62.1566 -23.3551 -27.8572 0.1182 -0.5163 105.0245 -46.4593 13.3437 -9.9557 14.4008 7.2116 -16.0239 49.7179 -3.6516 -5.1171 10.8409 -21.8846 25.9890 -0.4780 37.6361 -0.9614 -21.0822 -13.5109 6.5439 1.6616 -2.3658 -1.9376 -7.6555 -48.2833 -23.5289 -0.1398 47.0708 -0.1520 4.5095 -4.4986 -14.4036 -1.4631 0.5613 1.1440
0.3085 91.2058 -5.9989 6.1008 4.2152 -2.0035 0.3253 10.5025 -1.1903 -0.3610 -1.2449 -1.5741 0.8257 6.7574 -4.4871 10.8535 25.9721 -1.4931 -2.4852 -4.2053 -8.7362 3.0412 -12.6707 -11.2326 -0.0658 -0.0806 0.1212 0.6663 -10.6622 -3.7889 -0.7806 -10.7131 4.0274 4.6429 6.1575 -4.1767 -53.3984 -19.0180 -35.9137 1.5653 -0.4274 -134.6224 7.7049 0.2278 -10.8685 -15.6812 10.7376 15.9557 -61.1196 1.5688 2.4281 8.7236 6.9467 11.8313 61.9419 -22.7774 -26.9186 -0.0123 -0.5931 105.0888 -45.6922 12.6417 -9.7730 14.4113 7.2527 -16.0073 49.7018 -3.6633 -5.0929 10.1661 -21.7658 27.0841 -0.4768 38.1069 -0.8950 -21.0234 -13.8185 6.8512 1.6598 -2.1253 -1.9433 -7.6473 -48.1809 -23.2107 -0.1577 45.2283 -0.1556 4.2211 -2.7350 -13.0707 -1.4617 0.3260 1.1396
1.3924 91.3794 -6.7912 5.9591 4.1664 -4.2488 0.0477 10.5716 -1.1816 -0.4417 -1.1803 -1.4381 0.6800 6.8011 -4.2759 10.7988 26.6178 -1.2672 -2.4876 -4.1809 -8.3165 3.1149 -12.5644 -10.7959 -0.0650 -0.0729 0.1071 0.6715 -10.6712 -3.8029 -0.7833 -10.7192 4.0118 5.1640 5.9357 -3.8729 -53.7011 -18.5464 -35.0634 1.6140 -0.4572 -134.4195 7.3922 0.6495 -10.6504 -15.6416 10.6813 15.9298 -60.9636 1.5511 2.3573 9.0989 6.9674 11.9625 61.6079 -22.1902 -25.5498 -0.1564 -0.5746 104.9626 -44.8675 12.2354 -9.8583 14.3603 7.3369 -16.0261 49.6664 -3.6577 -5.0722 9.6552 -21.5637 28.5031 -0.4515 38.5816 -0.8194 -21.1931 -14.1387 7.4170 1.6567 -1.8444 -1.9708 -7.0274 -48.2626 -23.5514 -0.1317 43.4695 -0.1562 4.2918 -0.7623 -10.5797 -1.4574 -0.1390 1.1585
2.4371 91.5547 -7.6251 5.5370 4.1415 -7.1514 -0.2049 10.6889 -1.0935 -0.5602 -1.0929 -1.2289 0.5170 6.8150 -3.9074 10.5708 27.2378 -0.9891 -2.4766 -4.0161 -7.6783 3.3760 -12.6428 -10.3298 -0.0966 -0.0393 0.1354 0.6400 -10.6832 -3.7706 -0.8159 -10.7203 4.0470 5.4935 6.0024 -3.3148 -54.1113 -18.0681 -33.7352 1.4030 -0.2662 -134.2118 7.0106 0.9222 -10.5678 -15.6964 10.7625 16.0280 -60.9007 1.4444 2.3107 9.5570 7.0956 12.1037 61.1615 -21.8079 -23.7598 -0.2044 -0.5850 104.5300 -43.9799 12.4201 -10.1917 14.4322 7.4009 -16.0566 49.6211 -3.5917 -4.9834 9.4729 -21.5016 30.2226 -0.4429 39.2207 -0.8095 -21.4413 -14.3902 8.3656 1.6389 -1.5181 -1.9805 -5.3183 -48.7284 -25.3120 0.0439 42.1680 0.0156 6.2216 1.8453 -6.0720 -1.4571 -0.7859 1.0639
3.2566 91.6094 -8.4474 4.4388 4.0267 -10.5843 -0.3358 10.8776 -0.9048 -0.6022 -1.0431 -0.9644 0.5858 7.0332 -3.4296 10.2134 27.7540 -0.4352 -2.3511 -3.9758 -7.2185 3.5903 -12.5772 -9.7219 -0.0797 -0.0356 0.1029 0.6583 -10.6612 -3.7878 -0.7985 -10.7057 3.9942 5.5846 6.0017 -2.4284 -54.5224 -17.2740 -32.0033 0.9677 -0.0588 -134.2494 6.5315 1.5670 -10.2678 -15.6655 10.7165 16.0214 -60.6867 1.3401 2.2788 9.9994 7.4258 12.6854 60.6569 -21.6744 -21.8591 -0.3442 -0.4093 104.1680 -43.1246 12.2620 -10.1443 14.4665 7.3486 -16.0312 49.6874 -3.6381 -4.9316 10.2193 -21.9407 32.1208 -0.3770 40.1725 -0.7700 -21.7608 -14.7030 9.2472 1.6199 -1.4575 -1.9464 -3.0699 -49.3279 -27.7640 0.2203 42.2589 0.0317 13.6113 4.4035 2.0502 -1.3921 -2.4025 1.1085
3.6556 91.3574 -9.2468 2.7714 3.5721 -13.7517 -0.3391 11.1396 -0.6666 -0.6297 -0.9989 -0.5970 0.9909 7.4412 -3.1265 9.7786 27.9857 0.1061 -2.0721 -3.9274 -6.8035 3.7292 -12.2821 -8.9089 -0.0750 -0.0252 0.0956 0.6640 -10.6776 -3.7922 -0.7929 -10.7295 3.9843 5.5983 6.1614 -1.4909 -54.5982 -16.4016 -30.6557 0.6959 0.1155 -134.4440 5.9754 1.7685 -9.8444 -15.5222 10.6985 15.9735 -60.4470 1.2701 2.2064 10.3183 7.8465 13.4039 60.3075 -21.5413 -20.2019 -0.6747 -0.4884 103.9158 -42.7278 12.1495 -9.6744 14.5504 7.2938 -16.0246 49.9398 -3.7559 -5.0292 12.0608 -23.1405 33.6565 -0.3810 41.8823 -0.7502 -22.0844 -15.0249 9.9393 1.6166 -1.5661 -1.8402 -1.8408 -49.6123 -29.7681 0.5536 43.5680 0.5190 30.9366 4.8474 13.8665 -1.0706 -2.6571 1.1356
